<svg xmlns="http://www.w3.org/2000/svg" xmlns:xlink="http://www.w3.org/1999/xlink" version="1.1" x="0px" y="0px" viewBox="0 0 100 125" style="enable-background:new 0 0 100 100;" xml:space="preserve"><g><path d="M9.2,74.7h27.8l9.6,15.1c0.7,1.2,2,1.9,3.4,1.9s2.7-0.7,3.4-1.9l9.6-15.1h28c3.3,0,5.8-2.6,5.8-5.8V14.1   c0-3.3-2.6-5.8-5.8-5.8H9.2c-3.3,0-5.8,2.6-5.8,5.8v54.8C3.3,72.2,6,74.7,9.2,74.7z M8,14.1c0-0.7,0.5-1.2,1.2-1.2h81.7   c0.7,0,1.2,0.5,1.2,1.2v54.8c0,0.7-0.5,1.2-1.2,1.2H61.7c-0.8,0-1.5,0.4-2,1.1L50,86.5l-9.7-15.3c-0.5-0.7-1.2-1-2-1H9.2   C8.5,70.2,8,69.7,8,69V14.1z"/></g><text x="0" y="115" fill="#000000" font-size="5px" font-weight="bold" font-family="'Helvetica Neue', Helvetica, Arial-Unicode, Arial, Sans-serif">Created by Fantastic</text><text x="0" y="120" fill="#000000" font-size="5px" font-weight="bold" font-family="'Helvetica Neue', Helvetica, Arial-Unicode, Arial, Sans-serif">from the Noun Project</text></svg>